<svg version="1" xmlns="http://www.w3.org/2000/svg" width="933.333" height="933.333" viewBox="0 0 700.000000 700.000000"><path d="M484.8 136.5c-31.5 5.8-64.5 29.5-84.3 60.5-19.2 30-25.6 65.2-17 93.7 3 9.7 3.8 8.3-20.5 33.7-6.3 6.6-13.1 13.6-15 15.7-5.7 6-31.2 32.8-35.5 37.3-2.2 2.4-11 11.6-19.5 20.6-19.9 21-21.8 22.9-63.6 66.9-4.5 4.7-10.1 10.6-12.4 13.1-3.9 4.1-27.3 28.8-39.8 41.8-5.6 5.9-7 9.1-5.6 12.7 1.2 3.1 21.2 24.4 24.4 26 3.9 1.9 7.9.2 13.4-5.7 2.7-2.9 11.9-12.7 20.5-21.7s17.9-18.7 20.6-21.6c2.8-2.9 11.8-12.4 20.1-21.1 8.3-8.8 16.6-17.5 18.4-19.4 1.8-1.9 10.8-11.4 20-21s18.2-19.1 20-21c1.7-1.9 7.2-7.7 12.2-12.8 8.2-8.4 9.3-9.2 12.7-9.2 4 0 6 1.9 37.6 35.4 1.7 1.8 10.2 10.8 19 20.1 17.7 18.6 18.7 19.6 40.1 42.1 8.3 8.8 16.6 17.5 18.4 19.4 17.6 18.9 34.9 36.4 36.7 37.1 4 1.5 7.6-.9 18.3-12.2 10.4-11.1 12.8-14.3 12.4-16.7-.1-.6-.2-1.8-.3-2.5-.2-1.5-2.3-3.9-20.1-22.7-8-8.4-16.3-17.1-18.5-19.4-2.2-2.4-11-11.6-19.5-20.6-8.5-8.9-16.8-17.7-18.5-19.5-4.1-4.3-15.9-16.7-35.5-37.4-9.1-9.6-17.4-18.4-18.5-19.5-1.1-1.2-5.3-5.6-9.2-9.8-6.3-6.6-7.3-8.1-7.3-11.2 0-3.9 1.6-5.9 21.2-25.8 7.5-7.5 8.7-7.9 17.3-5.2 42.4 13.2 94.1-10.1 125-56.1 8.4-12.6 17.5-33.4 19.9-46 .4-1.7.9-4.1 1.2-5.5.4-1.4.8-8.4 1-15.5.5-18.5-2.4-31.2-10.3-44.7-9.5-16.2-24.1-27.1-42.8-31.7-9-2.3-25.9-2.5-36.7-.6z"/><path d="M166.8 150.2c-6.3 6.8-14.1 22.4-17.3 34.7-2.3 8.9-2.6 11.2-2.9 22.6-.6 18.2 2.7 32.4 11 48.3 5.6 10.7 9.5 15.7 22.8 29.6 5 5.2 22.5 23.5 40.3 42.1 49.8 52.3 49 51.5 52.1 51.5 4.2 0 5.2-.9 22.7-19.5 2.6-2.8 11.6-12.1 19.9-20.8 8.3-8.7 16-17.4 17.1-19.2 1.8-3 1.8-3.6.5-6.3-1.3-2.6-11.9-14.2-38-41.3-2.5-2.5-11.7-12.2-20.5-21.4-8.8-9.3-20.3-21.4-25.6-26.9-5.3-5.6-11.6-12.2-14-14.7-9.4-10-37-38.8-47.5-49.8-9.4-9.7-11.6-11.5-14.4-11.7-2.6-.2-4 .5-6.2 2.8z"/></svg>