<?xml version="1.0" standalone="no"?>
<!DOCTYPE svg PUBLIC "-//W3C//DTD SVG 20010904//EN"
 "http://www.w3.org/TR/2001/REC-SVG-20010904/DTD/svg10.dtd">
<svg version="1.0" xmlns="http://www.w3.org/2000/svg"
 width="500.000000pt" height="500.000000pt" viewBox="0 0 500.000000 500.000000"
 preserveAspectRatio="xMidYMid meet">
<metadata>
Created by potrace 1.11, written by Peter Selinger 2001-2013
</metadata>
<g transform="translate(0.000000,500.000000) scale(0.100000,-0.100000)"
fill="#000000" stroke="none">
<path d="M3419 4019 c-215 -30 -476 -205 -614 -413 -155 -234 -204 -523 -123
-729 10 -26 7 -31 -59 -100 -79 -81 -239 -249 -303 -317 -23 -25 -110 -117
-193 -204 -84 -88 -168 -176 -187 -196 -19 -20 -103 -109 -186 -196 -84 -87
-166 -175 -184 -194 -28 -30 -227 -239 -393 -412 -40 -43 -46 -53 -35 -66 15
-19 46 -52 143 -152 l69 -72 86 89 c47 49 162 170 255 268 94 98 190 200 215
226 25 26 108 113 185 194 142 150 179 189 293 309 35 36 67 66 71 66 4 0 45
-42 93 -92 47 -51 112 -120 145 -154 64 -67 358 -375 419 -440 21 -23 108
-114 193 -203 84 -89 175 -185 201 -213 l48 -53 111 115 c61 63 110 118 111
121 0 7 -18 27 -210 229 -71 75 -143 151 -161 170 -18 19 -105 111 -193 204
-89 93 -177 186 -196 206 -19 20 -100 106 -180 190 -80 83 -147 156 -148 161
-2 6 32 47 76 92 45 45 96 99 115 121 l35 38 58 -22 c79 -30 223 -37 320 -17
348 74 655 399 729 772 4 17 8 71 9 120 10 290 -162 516 -420 553 -80 11 -117
11 -195 1z"/>
<path d="M1118 3913 c-130 -180 -171 -376 -123 -584 29 -132 91 -239 206 -359
140 -147 367 -385 409 -429 25 -26 85 -90 134 -141 l89 -94 104 110 c201 210
338 356 341 363 3 10 -13 29 -197 221 -87 91 -177 185 -200 210 -24 25 -109
115 -191 200 -81 85 -162 171 -180 190 -124 133 -345 360 -351 360 -4 0 -23
-21 -41 -47z"/>
</g>
</svg>
