<svg fill-rule="evenodd" clip-rule="evenodd" stroke-linejoin="round" stroke-miterlimit="1.414" xmlns="http://www.w3.org/2000/svg" viewBox="0 0 32 32" fill="#ff4527" width="24" height="20"><title>pin-fill</title><path d="M7.993 14.15a.999.999 0 1 0 1.414 1.414l.504-.504 4.586 6.549a.965.965 0 0 0 .079.1l-.219.219a.999.999 0 1 0 1.414 1.414l7.071-7.071a.999.999 0 1 0-1.414-1.414l-.212.212-6.654-4.66.502-.502a1 1 0 0 0-1.414-1.414L7.993 14.15zM19.307 21.221l1.414-1.414 3.536 3.535a1 1 0 0 1-1.414 1.415l-3.536-3.536z"/></svg>