<svg fill-rule="evenodd" clip-rule="evenodd" stroke-linejoin="round" stroke-miterlimit="1.414" xmlns="http://www.w3.org/2000/svg" viewBox="0 0 32 32" fill="#ff4527" width="24" height="20"><title>pin</title><g fill-rule="non-zero"><path d="M7.407 15.978a1 1 0 0 1 0-1.414l5.657-5.657a1 1 0 0 1 1.414 1.414l-5.657 5.657a.999.999 0 0 1-1.414 0z"/><path d="M15.303 22.268a1 1 0 0 1-1.393-.245l-4.692-6.702a1 1 0 1 1 1.638-1.147l4.693 6.702a.998.998 0 0 1-.246 1.392zM20.891 16.887a1 1 0 0 0-.245-1.393l-6.996-4.898a1 1 0 1 0-1.147 1.638l6.996 4.899a.998.998 0 0 0 1.392-.246z"/><path d="M13.771 23.756a1 1 0 0 1 0-1.414l7.071-7.071a.999.999 0 1 1 1.414 1.414l-7.071 7.071a.999.999 0 0 1-1.414 0zM18.721 21.635l1.414-1.414 3.536 3.535a1 1 0 0 1-1.414 1.415l-3.536-3.536z"/></g></svg>