<svg width="24" height="24" viewBox="0 0 24 24" xmlns="http://www.w3.org/2000/svg"><path d="M14.81 8.815l-2.057-5.087c-.416-1.03-1.086-1.037-1.5-.016L9.19 8.826l-5.206.464c-1.096.097-1.314.785-.506 1.52l3.982 3.622-1.205 5.422c-.24 1.082.323 1.478 1.254.89L12 17.896l4.49 2.846c.934.59 1.497.194 1.257-.89l-1.197-5.42 3.975-3.623c.815-.742.58-1.425-.51-1.523l-5.205-.472zm-5.726 8.967c-.466.295-.748.104-.627-.44l.783-3.52-2.583-2.35c-.407-.372-.3-.712.257-.763l3.386-.31L11.627 7.1c.206-.513.543-.506.744-.008l1.34 3.32 3.386.31c.55.05.664.39.257.76l-2.583 2.354.783 3.518c.12.54-.158.737-.62.444L12 15.933l-2.916 1.85z"/></svg>
