<svg xmlns="http://www.w3.org/2000/svg" width="512" height="512" viewBox="0 0 512 512"><path d="M377.3 213.4c-1.4-3.9-3-7.8-4.8-11.6-5.5-11.5-12.6-22-21.2-31.4-1.3-1.4-2.6-2.7-3.8-3.9-1.5-1.5-3.2-3.1-4.8-4.6-9.5-8.6-20.2-15.7-31.8-21-3.8-1.8-7.7-3.2-10.9-4.3 0 0-6.9-2.4-10.5-3.3-3.7-.9-8.3-1.9-8.3-1.9-6.2-1.2-12.4-1.9-18.7-2.2-3.8-.2-7.6-.2-11.3 0-12.9.6-25.6 3.1-37.7 7.5-3.9 1.4-7.8 3-11.6 4.8-11.2 5.4-21.6 12.3-30.9 20.7-1.6 1.4-3.1 2.9-4.5 4.3s-2.9 2.9-4.3 4.5c-8.7 9.6-15.9 20.4-21.3 32.1-1.5 3.3-2.9 6.8-4.2 10.3-4.4 12.1-6.9 24.8-7.5 37.7-.2 3.7-.2 7.5 0 11.3.3 6.1 1 12.2 2.1 18.3 0 0 .8 3.9 2.6 10.5 1.8 6.7 3.1 10 3.1 10 1.2 3.3 2.5 6.5 4 9.6 5.4 11.6 12.4 22.3 21 31.8 1.5 1.7 3 3.3 4.6 4.8 1.2 1.2 2.5 2.4 3.9 3.8 9.4 8.6 20 15.8 31.4 21.2 3.7 1.8 7.6 3.4 11.6 4.8 11.9 4.3 24.3 6.8 37 7.4 4.3.2 8.6.2 12.8 0 12.6-.6 25-3 36.8-7.3 3.1-1.1 6.8-2.4 10.7-4.2 10.4-4.8 20.9-11.5 29.8-19.2 0 0 2.6-2.4 6.4-6.2 3.8-3.8 6.4-6.8 6.4-6.8 7.7-8.8 13.8-18 18.9-28.7 2.2-4.6 4-8.7 5.2-12.3 4.2-11.9 6.7-24.3 7.3-36.9.2-4.2.2-8.6 0-12.8-.8-12.5-3.2-24.9-7.5-36.8zm-232.2 48.3c-.1-3.3-.1-6.6 0-9.9.5-11.2 2.7-22.4 6.5-33 1.1-3 2.3-6 3.7-9 4.6-10 10.9-19.5 18.6-28.1 1.2-1.3 2.5-2.7 3.8-3.9 1.3-1.3 2.6-2.5 3.9-3.8 8.2-7.5 17.4-13.5 27-18.1 3.3-1.6 6.7-3 10.1-4.2 10.7-3.8 21.8-6 33-6.5 3.3-.1 6.6-.2 9.9 0 5.5.2 10.9.9 16.3 1.9l-27.6 103-103.5 27.7c-.9-5.3-1.5-10.7-1.7-16.1zm158.6 97.2c-3.1 1.4-6 2.5-9.2 3.6-10.4 3.7-21.3 5.8-32.2 6.3-3.7.2-7.5.1-11.2 0-11-.6-21.9-2.7-32.3-6.5-3.4-1.2-6.8-2.6-10.1-4.2-9.8-4.7-19.1-10.9-27.5-18.6-1.2-1.1-2.3-2.2-3.4-3.3-1.4-1.4-2.7-2.8-4-4.2-7.7-8.5-13.8-17.9-18.4-27.8-1.4-3.1-2.7-6.3-3.9-9.5-.2-.5-.3-.7-.4-1.2l102.8-27.3 75.9 75.9c-7.6 6.6-16.7 12.5-26.1 16.8zm65.1-96.5c-.5 10.9-2.6 21.8-6.4 32.3-1.3 3.6-3.1 7.5-4.7 10.9-4.2 8.8-9.3 16.9-16.6 25.2l-75.9-75.9 28-103.7c.4.1.9.3 1.3.4 3.2 1.1 6.5 2.3 9.6 3.8 9.9 4.6 19.3 10.7 27.8 18.4 1.4 1.3 2.8 2.6 4.2 4 1.1 1.1 2.2 2.3 3.3 3.5 7.7 8.4 13.9 17.7 18.6 27.5 1.6 3.3 3 6.7 4.2 10.1 3.8 10.5 5.9 21.4 6.5 32.4.2 3.6.2 7.4.1 11.1zM448.2 272.7v-32l-33.3-8.7c-.7-4.4-1.6-8.8-2.6-13.2l27.6-20.9-12.2-29.6-34.4 4.8c-2.3-3.7-4.9-7-7.5-10.6l17.7-29.7-22.6-22.6-30.2 17.4c-3.5-2.6-7-5.1-10.7-7.3l5.3-35L315.8 73l-21.6 28.3c-4.1-1-8.2-1.9-12.3-2.6L273.2 64h-32L232 98.9c-4 .6-8.1 1.5-12.1 2.4l-21.5-29-29.6 12.3 4.8 35.7c-3.8 2.3-8 4.5-11.7 7.2l-31.3-18.7-22.6 22.6 18.8 31.5c-2.4 3.4-4.5 7-6.7 10.5l-35.5-5L72.4 198l28.9 21.7c-1 4-1.8 8.1-2.4 12.2l-34.8 8.9v32l34.7 8.9c.6 4.2 1.5 8.3 2.4 12.5l-28.4 21.3L85.1 345l35-5c2.3 3.8 4.5 7.7 7.1 11.3l-17.9 30.6 22.6 22.6 30.2-18.2c3.6 2.6 7.4 5 11.2 7.3l-4.5 34.3 29.6 12.2 20.6-27.8c4.4 1.1 8.9 1.8 13.4 2.5l8.8 33.1h32l8.3-33.1c4.6-.7 9.1-1.5 13.6-2.6l20.7 27.1 29.6-12.2-5-33.7c3.6-2.2 6.8-4.9 10.2-7.4l29 16.9 22.6-22.6-16.8-28.9c2.8-3.8 5.5-7.4 7.9-11.4l33.8 4.8 12.3-29.5-27.2-20.5c1.1-4.5 2-8.9 2.7-13.5l33.3-8.6zm-45.6 34.9l17.3 13.1-2.8 6.7-21.5-3-10.4-1.5-5.5 9c-2.3 3.7-4.8 7.3-7.1 10.3l-6.3 8.5 5.1 8.9 10.6 18.2-5.2 5.2-18.4-10.7-8.9-5.2-8.4 6.2c-.6.4-1.1.8-1.6 1.2-2.7 2-5.2 3.8-7.6 5.3l-9 5.5 1.6 10.5 3.2 21.3-6.7 2.8-13.2-17.3-6.4-8.3-10.2 2.5c-3.9 1-8.1 1.8-12.2 2.4l-10.5 1.6L266 411l-5.3 21h-7.2l-5.7-21.2-2.7-10.1-10.3-1.6c-4.1-.6-8.2-1.4-12-2.4l-10.3-2.5-6.3 8.5-13.2 17.9-6.7-2.8 3-22.2 1.4-10.3-8.9-5.4c-3.8-2.3-7-4.5-10-6.6l-8.6-6.3-9.3 5.7-19.5 11.8-5.1-5.1 11.7-20 5.3-9.1-6.1-8.5c-2-2.8-4-5.9-6.5-10l-5.5-9.1-10.5 1.5-22.7 3.2-2.7-6.6 18.5-13.9 8.4-6.3-2.4-10.2c-.9-3.7-1.6-7.5-2.2-11.2l-1.6-10.4-10.3-2.6-22.7-5.9v-7.2l22.8-5.8 10.2-2.6 1.7-10.4c.6-3.8 1.3-7.5 2.2-11l2.4-10.2-8.4-6.3L92 192.6l2.7-6.6 23.3 3.3 10.4 1.5 5.5-9c1.9-3.1 3.9-6.4 6.1-9.3l6.2-8.5-5.6-9.2-12.4-20.8 5-5 20.6 12.3 9.2 5.5 8.6-6.2c2.6-1.9 5.7-3.8 8.9-5.7l1.5-.9 8.9-5.4-1.4-10.3-3.1-23.5 6.7-2.8 14 18.9 6.3 8.5 10.3-2.4c3.6-.8 7.2-1.6 10.9-2.1l10.3-1.6 2.7-10.2 6.1-23h7.2l5.7 22.7 2.6 10.3 10.5 1.7c3.7.6 7.4 1.3 11.1 2.2l10.1 2.4 6.3-8.3L321 92.6l6.6 2.8-3.4 22.6-1.6 10.5 9.1 5.5c3.1 1.9 6.3 4 9.7 6.5l8.4 6.1 8.8-5 19.5-11.2 5.1 5.1-11.3 19-5.4 9 6.3 8.5c2.7 3.7 4.8 6.8 6.6 9.6l5.5 8.9 10.4-1.5 22.1-3.1 2.8 6.7-17.8 13.4-8.4 6.3 2.5 10.2c.9 3.8 1.7 7.8 2.4 11.9l1.6 10.4 10.1 2.6 21.2 5.5v7.2l-21.2 5.5-10.2 2.6-1.6 10.4c-.6 4.1-1.4 8.2-2.4 12.1l-2.5 10.2 8.7 6.7z"/></svg>