<svg xmlns="http://www.w3.org/2000/svg" width="512" height="512" viewBox="0 0 512 512"><path d="M423.3 199.4c-15.9-15.1-37.1-23.4-59.7-23.4s-43.8 8.3-59.7 23.4l-36.2 34.3 11.7 11.2 36.2-34.4c12.8-12.1 29.8-18.8 47.9-18.8 18.1 0 35.1 6.7 47.9 18.8 26.4 25.1 26.4 65.9 0 90.9-12.8 12.1-29.8 18.8-47.9 18.8-18.1 0-35.1-6.7-47.9-18.8L208 199.4c-16-15.1-37.2-23.4-59.7-23.4-22.6 0-43.8 8.3-59.7 23.4-32.9 31.2-32.9 81.9 0 113.1 15.9 15.1 37.1 23.4 59.7 23.4s43.8-8.3 59.7-23.4l36.1-34.3-11.7-11.1-36.2 34.3c-12.8 12.1-29.8 18.8-47.9 18.8-18.1 0-35.1-6.7-47.9-18.8-26.4-25.1-26.4-65.9 0-90.9 12.8-12.1 29.8-18.8 47.9-18.8 18.1 0 35.1 6.7 47.9 18.8l107.6 102c16 15.1 37.2 23.4 59.7 23.4 22.6 0 43.8-8.3 59.7-23.4 33-31.1 33-81.9.1-113.1z"/></svg>