<svg xmlns="http://www.w3.org/2000/svg" width="512" height="512" viewBox="0 0 512 512"><path d="M390.5 144h-167c-4.7 0-10.7-9.9-18.5-19-7.1-8.3-14.7-13-20.5-13h-60.3c-15.5 0-28.2 8.9-28.2 24.3v234.6c0 15.5 12.7 29.1 28.2 29.1h266.3c15.5 0 25.5-13.6 25.5-29.1V168.8c0-15.5-10-24.8-25.5-24.8zm-266.3-16H179.3c3.9 0 8.6 1.6 14.3 8.3 12.1 14.3 15.5 23.7 29.9 23.7h167c6.6 0 9.5 2.2 9.5 8.8V192H112v-55.7c0-9 10.3-8.3 12.2-8.3zm266.3 256H124.2c-6.5 0-12.2-6.2-12.2-13.1V208h288v162.9c0 6-2.6 13.1-9.5 13.1z"/></svg>