<svg xmlns="http://www.w3.org/2000/svg" width="512" height="512" viewBox="0 0 512 512"><path d="M480 285c0-122.1-99.7-220.7-223.2-221h-.7C132.3 64 32 162.7 32 285v.5c0 64 27.6 121.5 71.5 161.9l.5.5 36.6-36.6-11.3-11.3-25.3 25.3c-15.8-17.2-28.6-36-38-56.8-10.4-23-16.4-47.4-17.7-72.5H80v-16H48.1c.6-26 6.1-51.3 16.3-75.1 9.2-21.6 22-41.3 37.9-58.6L130 174l5.5-5.5 5.3-5.2.5-.5-27.8-27.8c18-16.8 38.7-30.2 61.5-39.7 23.2-9.7 47.7-14.3 73-15.1V117h16V80.1c25.3.8 49.9 5.3 73.1 15.1 22.7 9.5 43.3 22.8 61.3 39.6l-27.9 27.9.5.5 5.3 5.2 5.5 5.5 27.9-27.9c16 17.3 28.8 37 38 58.7 10.2 23.9 15.6 49.1 16.2 75.2H432v16h31.7c-1.4 25.1-7.3 49.6-17.7 72.5-9.5 20.8-22.3 39.6-38.1 56.8L382.5 400l-11.3 11.3 36.7 36.6 2.6-2.5c42.7-40.3 69.6-97 69.6-160v-.3c-.1.1-.1 0-.1-.1zM240.4 254.7c-1.1.8-1.7 1.6-2.4 2.4-5.4 4.9-8.9 11.8-8.9 19.6 0 14.7 12.1 26.6 26.9 26.6 8.5 0 16-3.9 20.9-10 .4-.4.9-.8 1.2-1.2l81.4-94.2-10-10.8-109.1 67.6z"/></svg>