<svg xmlns="http://www.w3.org/2000/svg" width="512" height="512" viewBox="0 0 512 512"><path d="M207.1 80c6.1.1 11.9 2.5 16.2 6.8l203.9 213.6.1.1.1.1c2.9 2.9 4.5 6.9 4.5 11.2 0 4.3-1.6 8.2-4.5 11.1L323 427.5c-2.9 2.9-6.9 4.5-11.1 4.5-4.3 0-8.3-1.6-11.2-4.5l-.1-.1-.1-.1L86.6 220.2c-4.3-4.5-6.6-10.3-6.6-16.4v-108C80 87.1 87.1 80 95.8 80h111.3m.1-16H95.8C78.2 64 64 78.2 64 95.8v108.1c0 10.8 4.3 20.5 11.3 27.7l214 207.2c6.1 6.1 14.3 9.2 22.5 9.2 8.1 0 16.3-3 22.5-9.2l104.5-104.4c6.2-6.2 9.2-14.3 9.2-22.5s-3.1-16.4-9.2-22.5l-204-213.8c-7.7-7.6-17.6-11.5-27.6-11.6z"/><path d="M160 128c17.7 0 32 14.3 32 32s-14.3 32-32 32-32-14.3-32-32 14.3-32 32-32m0-16c-26.5 0-48 21.5-48 48s21.5 48 48 48 48-21.5 48-48-21.5-48-48-48z"/></svg>