<svg xmlns="http://www.w3.org/2000/svg" width="512" height="512" viewBox="0 0 512 512"><path d="M256 32c-74 0-134.2 58.7-134.2 132.7 0 16.4 3.5 34.3 9.8 50.4h-.1l.6 1.2 1.5 3.3L256 480l121.8-259.1.6-1.2c.5-1.1 1.1-2.2 1.6-3.4l.4-1.1c6.5-16.1 9.8-33.1 9.8-50.3C390.2 90.7 330 32 256 32zm109.1 177.4l-.2.5c-.3.6-.6 1.3-.9 1.9l-1 2.1-107 227.4-107.1-227.4-.9-2c-.3-.6-.6-1.2-.8-1.8-5.9-14.5-9.1-30.6-9.1-45.4 0-65 52.9-116.5 118-116.5s118 51.4 118 116.5c-.1 15.2-3.1 30.2-9 44.7zM256 96c-35.3 0-64 28.7-64 64s28.7 64 64 64 64-28.7 64-64-28.7-64-64-64zm0 110.9c-25.9 0-46.9-21-46.9-46.9s21-46.9 46.9-46.9 46.9 21 46.9 46.9-21 46.9-46.9 46.9z"/></svg>