<svg xmlns="http://www.w3.org/2000/svg" width="512" height="512" viewBox="0 0 512 512"><path d="M256.1 64C132.3 64 32 162.7 32 285c0 64.3 27.9 122 72.1 163h303.8c44.2-41 72.1-98.7 72.1-163 0-122.3-100.1-221-223.9-221zm22.1 228.1l-1.2 1.2c-4.9 6.1-12.4 10-20.9 10-14.9 0-26.9-11.9-26.9-26.6 0-7.8 3.5-14.7 8.9-19.6.7-.8 1.3-1.6 2.4-2.4l109.2-67.6 10 10.8-81.5 94.2zm125.4 137.4l-2.4 2.5-14.9-15-19.2-19.2 10.5-10.4 23.6 23.2c14.8-15.9 22.7-30.3 31.4-49.5 9.7-21.2 15.2-43.1 16.5-67.1H420v-15h29.4c-.6-23-5.6-47-15.1-69-8.6-20-20.5-37.8-35.3-53.8l-25.9 25.7-5.1-5.1-5-4.8-.5-.5 25.9-25.7c-16.7-15.5-36-27.7-57.1-36.5-21.6-9-44.2-13.2-68.2-13.9V130h-14V95.3c-24 .7-46.5 4.9-68.1 13.9-21.2 8.8-40.6 21.1-57.4 36.7l25.8 25.6-.5.5-4.9 4.8-5.1 5-25.9-25.6c-14.8 16-26.7 34-35.3 53.9-9.5 22-14.6 46-15.1 69H92v15H62.8c1.3 24 6.8 45.9 16.5 67.1 8.8 19.2 16.6 33.7 31.4 49.6l23.5-23.2 10.6 10.4-19.2 19-14.8 14.9-.6-.6C69.4 394 47.7 334.5 47.7 284.7v-.6c0-84.2 53.8-157.6 125.9-188.1 25.2-10.7 53.3-16 82.5-16 29 .1 57.9 5.2 82.9 16 72.8 31.4 125.3 104.1 125.3 188.3v.6c0 58.1-25.3 109.4-60.7 144.6z"/></svg>