<svg xmlns="http://www.w3.org/2000/svg" width="512" height="512" viewBox="0 0 512 512"><path d="M421.9 199.3c-16.7-15-39-23.3-62.6-23.3s-45.9 8.3-62.6 23.3l-31.6 28.5 22.4 20.2 31.1-28c10.8-9.7 25.3-15.1 40.7-15.1 15.4 0 29.9 5.4 40.7 15.1 10.7 9.6 16.6 22.4 16.6 36.1 0 13.6-5.9 26.4-16.6 36-10.8 9.7-25.3 15.1-40.7 15.1-15.4 0-29.9-5.4-40.7-15.1l-103.3-92.7c-16.7-15-39-23.3-62.6-23.3s-45.9 8.3-62.6 23.3C73.3 214.4 64 234.5 64 256s9.3 41.6 26.1 56.7c16.7 15 39 23.3 62.6 23.3s45.9-8.3 62.6-23.3l31.6-28.4-22.4-20.2-31 27.9c-10.8 9.7-25.3 15.1-40.7 15.1s-29.9-5.4-40.7-15.1c-10.7-9.6-16.6-22.4-16.6-36 0-13.6 5.9-26.4 16.6-36.1 10.8-9.7 25.3-15.1 40.7-15.1 15.4 0 29.9 5.4 40.7 15.1l103.3 92.7c16.7 15 39 23.3 62.6 23.3s45.9-8.3 62.6-23.3c16.8-15.1 26.1-35.2 26.1-56.7-.1-21.4-9.4-41.5-26.2-56.6z"/></svg>