<svg preserveAspectRatio="none" width="360" height="90" viewBox="0 0 391 94" xmlns="http://www.w3.org/2000/svg"><path d="M343.676 1.546c14.007 5.345 22.285 6.05 36.913 13.726 6.262 3.285 12.1 16.806 9.452 24.33-1.006 2.86-4.23 4.046-5.71 6.635-16.42 28.748-15.257 29.188-51.16 39.758C280.85 101.4 226.4 87.565 173.556 87.8c-41.364.186-82.728 2.294-124.085 1.187-4.173-.112-8.473-.223-12.73-.625-10.527-.994-20.8-3.763-28.286-12.703C-9.817 53.833 4.52 30.325 22.334 19.567 64.45-5.864 133.314.692 175.834 1.208c8.695.106 17.28 2.692 25.975 2.814 49.227.696 77.357-1.346 123.164-3.783l18.702 1.306z" fill="#ff4527" fill-rule="evenodd"/></svg>
