<svg xmlns="http://www.w3.org/2000/svg" width="512" height="512" viewBox="0 0 512 512"><path d="M471.036 150.483l-34.95-35.296c-5.82-5.8-13.507-9.188-21.646-9.188h-.11c-8.143 0-15.828 3.374-21.695 9.207l-139.73 140.436-61.774-62.064c-5.713-5.763-13.63-9.067-21.803-9.067-8.064.024-15.957 3.297-21.68 9.003l-34.956 35.02c-11.985 11.99-11.992 31.493-.04 43.447l118.354 118.942c4.496 4.522 10.323 7.535 16.562 8.597l.693.434 4.658.014c8.18 0 15.896-3.19 21.79-9.04l196.296-197.004c11.95-11.957 11.967-31.443.032-43.443zM252.86 367.523l-116.662-117.24 33.157-33.22 83.533 83.926 161.48-162.092 33.122 33.28-194.63 195.344zM369.688 124.772l-77.184-77.408 77.184 77.408zM290.55 45.504c-19.893-18.006-50.492-18.006-70.386 0C230.11 36.5 242.734 32 255.357 32s25.247 4.5 35.194 13.504zM463.39 218.745l-.82-.818-22.59 22.665.77.77c7.905 7.95 7.9 21.357-.02 29.297L269.854 442.036c-3.836 3.845-8.98 5.963-14.49 5.963s-10.652-2.118-14.485-5.96L69.982 270.655c-7.924-7.945-7.924-21.37.002-29.316L240.867 69.963c3.836-3.846 8.98-5.963 14.49-5.963s10.654 2.117 14.486 5.96l77.253 77.478 22.59-22.665-77.183-77.408c-.64-.64-1.29-1.26-1.953-1.86C280.604 36.5 267.98 32 255.357 32s-25.246 4.5-35.193 13.504c-.663.6-1.314 1.22-1.953 1.86L47.325 218.744c-20.432 20.49-20.432 54.022 0 74.51l170.893 171.38C228.434 474.878 241.897 480 255.363 480s26.93-5.122 37.146-15.366l170.88-171.38C474.665 281.908 480.012 268.746 480 256c-.014-13.57-6.074-26.688-16.61-37.255z"/></svg>