<svg xmlns="http://www.w3.org/2000/svg" width="512" height="512" viewBox="0 0 512 512"><path d="M475.695 145.772l-34.908-35.062c-2.807-2.798-6.465-4.34-10.404-4.326-3.936-.015-7.623 1.532-10.418 4.31l-167.07 167.622-73.13-73.472c-2.733-2.758-6.497-4.342-10.392-4.332-3.863.012-7.654 1.564-10.404 4.307l-34.966 35.028c-5.756 5.758-5.777 15.086-.016 20.85l118.36 118.946c2.366 2.38 5.44 3.858 8.718 4.22.555.074 1.12.105 1.684.102.035 0 .072 0 .107-.006l.016.01c3.95.012 7.7-1.553 10.502-4.335l212.31-213.017c2.8-2.8 4.315-6.68 4.315-10.243s-1.357-7.64-4.305-10.603zM462.568 217.927L282.74 398.354c-7.768 7.713-18.043 11.957-28.98 11.957l-7.982-.01-1.363-.22c-7.324-1.75-14.416-6.44-19.77-11.833l-118.32-118.905c-7.755-7.76-12.028-18.08-12.022-29.058 0-10.99 4.277-21.32 12.027-29.068l35.008-35.078c7.604-7.582 18.125-11.945 28.96-11.967 10.798 0 21.358 4.417 28.946 12.067l54.55 54.806 115.892-116.27-77.184-77.41C282.447 37.284 269.8 32 255.998 32s-27.41 4.96-37.79 15.364L47.323 218.744C37.107 228.99 32 242.72 32 256.03s5.107 26.98 15.322 37.223l170.893 171.38c20.434 20.49 53.86 20.49 74.293 0l170.88-171.38C474.65 281.563 480 269.97 480 256s-6.03-26.642-16.61-37.255l-.822-.818z"/></svg>