<?xml version="1.0" standalone="no"?>
<!DOCTYPE svg PUBLIC "-//W3C//DTD SVG 20010904//EN"
 "http://www.w3.org/TR/2001/REC-SVG-20010904/DTD/svg10.dtd">
<svg version="1.0" xmlns="http://www.w3.org/2000/svg"
 width="500.000000pt" height="500.000000pt" viewBox="0 0 500.000000 500.000000"
 preserveAspectRatio="xMidYMid meet">
<metadata>
Created by potrace 1.11, written by Peter Selinger 2001-2013
</metadata>
<g transform="translate(0.000000,500.000000) scale(0.100000,-0.100000)"
fill="#000000" stroke="none">
<path d="M3447 4034 c-1 -2 -21 -6 -43 -8 -68 -9 -199 -60 -286 -112 -139 -83
-283 -237 -372 -398 -31 -57 -83 -205 -94 -268 -13 -81 -7 -230 13 -308 11
-41 20 -78 20 -81 0 -5 -113 -125 -355 -379 -80 -83 -331 -347 -380 -400 -23
-25 -113 -119 -199 -209 -86 -90 -171 -180 -190 -200 -31 -33 -269 -284 -351
-370 -19 -21 -45 -49 -58 -63 l-23 -25 43 -45 c24 -25 74 -78 113 -118 l69
-72 96 99 c116 122 360 378 495 521 55 58 116 122 135 142 178 184 356 374
358 381 8 20 31 6 86 -53 32 -35 126 -135 209 -222 84 -88 168 -176 187 -196
19 -21 109 -115 200 -210 220 -231 327 -344 389 -410 l52 -55 109 115 c60 63
109 118 110 122 0 4 -15 23 -32 41 -81 84 -335 352 -349 369 -9 10 -89 94
-177 186 -88 92 -174 183 -192 202 -114 123 -289 307 -312 328 -16 14 -28 30
-28 35 0 5 33 44 74 86 41 42 91 95 113 118 l39 43 60 -21 c74 -27 209 -35
299 -20 271 47 536 263 673 544 184 382 67 787 -257 888 -56 17 -233 34 -244
23z"/>
<path d="M1114 3919 c-123 -168 -167 -379 -120 -581 30 -131 94 -240 216 -368
34 -36 135 -141 224 -235 89 -93 200 -210 247 -259 46 -49 99 -105 118 -124
l35 -35 85 90 c218 228 356 376 359 384 2 5 -2 15 -10 22 -29 30 -348 364
-378 397 -18 19 -103 109 -189 199 -210 220 -224 235 -390 410 -79 83 -147
151 -151 151 -5 0 -25 -23 -46 -51z"/>
</g>
</svg>
